<?xml version="1.0" encoding="utf-8"?>
<!-- Generator: Adobe Illustrator 18.1.1, SVG Export Plug-In . SVG Version: 6.00 Build 0)  -->
<!DOCTYPE svg PUBLIC "-//W3C//DTD SVG 1.1//EN" "http://www.w3.org/Graphics/SVG/1.1/DTD/svg11.dtd">
<svg version="1.1" id="Layer_1" xmlns="http://www.w3.org/2000/svg" xmlns:xlink="http://www.w3.org/1999/xlink" x="0px" y="0px"
	 viewBox="0 0 612 468" enable-background="new 0 0 612 468" xml:space="preserve">
<g>
	<path fill="#512200" stroke="#512200" stroke-miterlimit="10" d="M404.5,201.5c3.3,12.2,5.1,25.7,5.1,39.3c0,1.4,0,3.3,0,4.7
		l15.9,6.1l13.1-11.2l10.3,12.2l-20.1,16.4l-20.6-8.4c-2.3,18.3-8,35.6-15.9,50.1l2.8-3.7l15.4,8.9l15-8.9l8.4,13.6L412,334
		l-24.3-14.5c-19.2,29.5-48.7,48.7-81.9,48.7s-62.7-19.2-81.9-48.7l-23.9,14l-22-13.6l8.4-13.6l15,8.9l15.4-8.9l0.9,1.4
		c-7.5-14-12.6-30.4-14.5-47.7l-20.1,8L163,251.6l10.3-12.2l13.1,11.2l15.4-6.1c0-1.9,0-3.3,0-5.1c0-13.6,1.9-26.7,5.1-39.3
		l-26.2-0.9l-11.2-22.9l14-7l7.5,15.4l17.8,0.9l0.5,5.1c10.8-31.8,31.8-57.6,58-70.2c0.5-9.8,8.4-17.8,18.7-17.8h43.5
		c10.3,0,18.7,8.4,18.7,18.7c0,0.5,0,0.9,0,1.4c24.8,13.6,44.5,38.8,54.3,69.7l0.5-7l17.8-0.9l7.5-15.4l14,7l-11.2,22.9L404.5,201.5
		z"/>
	<polygon fill="#512200" stroke="#512200" stroke-miterlimit="10" points="357.7,87.8 355.8,93.4 352.6,94.8 346,96.7 340.4,100 
		332.4,104.2 332.4,100 341.3,93.9 347.9,92 353.5,87.8 356.8,81.7 362.9,79.4 361.5,85.5 	"/>
	<polygon fill="#512200" stroke="#512200" stroke-miterlimit="10" points="268.3,96.7 261.8,94.8 258.5,93.4 256.6,87.8 252.9,85.5 
		251.5,79.4 257.6,81.7 260.8,87.8 266.5,92 273,93.9 281.9,100 281.9,104.2 273.9,100 	"/>
</g>
</svg>
