<svg xmlns="http://www.w3.org/2000/svg" viewBox="0 0 612 468" enable-background="new 0 0 612 468"><g fill="#512200" stroke="#512200" stroke-miterlimit="10"><path d="M404.5 201.5c3.3 12.2 5.1 25.7 5.1 39.3v4.7l15.9 6.1 13.1-11.2 10.3 12.2-20.1 16.4-20.6-8.4c-2.3 18.3-8 35.6-15.9 50.1l2.8-3.7 15.4 8.9 15-8.9 8.4 13.6-21.9 13.4-24.3-14.5c-19.2 29.5-48.7 48.7-81.9 48.7s-62.7-19.2-81.9-48.7l-23.9 14-22-13.6 8.4-13.6 15 8.9 15.4-8.9.9 1.4c-7.5-14-12.6-30.4-14.5-47.7l-20.1 8-20.1-16.4 10.3-12.2 13.1 11.2 15.4-6.1v-5.1c0-13.6 1.9-26.7 5.1-39.3l-26.2-.9-11.2-22.9 14-7 7.5 15.4 17.8.9.5 5.1c10.8-31.8 31.8-57.6 58-70.2.5-9.8 8.4-17.8 18.7-17.8h43.5c10.3 0 18.7 8.4 18.7 18.7v1.4c24.8 13.6 44.5 38.8 54.3 69.7l.5-7 17.8-.9 7.5-15.4 14 7-11.2 22.9-26.6 2.4zM357.7 87.8l-1.9 5.6-3.2 1.4-6.6 1.9-5.6 3.3-8 4.2v-4.2l8.9-6.1 6.6-1.9 5.6-4.2 3.3-6.1 6.1-2.3-1.4 6.1zM268.3 96.7l-6.5-1.9-3.3-1.4-1.9-5.6-3.7-2.3-1.4-6.1 6.1 2.3 3.2 6.1 5.7 4.2 6.5 1.9 8.9 6.1v4.2l-8-4.2z"/></g></svg>